<svg width="512" height="512" viewBox="0 0 512 512" xmlns="http://www.w3.org/2000/svg"> 
   <defs> 
     <filter id="neon4"> 
       <feGaussianBlur stdDeviation="8" result="blur"/> 
       <feMerge> 
         <feMergeNode in="blur"/> 
         <feMergeNode in="SourceGraphic"/> 
       </feMerge> 
     </filter> 
   </defs> 
   <g filter="url(#neon4)"> 
     <rect x="156" y="280" width="200" height="190" rx="15" fill="#3B82F6"/> 
     <polygon points="256,180 156,280 356,280" fill="#6B7280"/> 
     <rect x="226" y="350" width="60" height="80" rx="8" fill="white"/> 
     <path d="M150,220 L120,220 Q100,220 100,240 L100,280 Q100,300 120,300 L150,300" fill="#F59E0B"/> 
     <rect x="100" y="240" width="40" height="40" rx="8" fill="#F59E0B"/> 
     <path d="M362,220 L392,220 Q412,220 412,240 L412,280 Q412,300 392,300 L362,300" fill="#10B981"/> 
     <rect x="372" y="240" width="40" height="40" rx="8" fill="#10B981"/> 
     <rect x="250" y="240" width="12" height="60" rx="6" fill="#6B7280"/> 
   </g> 
 </svg>