<svg width="500" height="200" viewBox="0 0 500 200" xmlns="http://www.w3.org/2000/svg"> 
   <g fill="currentColor"> 
     <path d="M100 40 L170 160 H142 L100 85 L58 160 H30 L100 40 Z" /> 
     <path d="M200 45 H270 V62 H222 V88 H265 V105 H222 V143 H270 V160 H200 V45 Z" /> 
     <path d="M350 45 C315 45 295 70 295 105 C295 140 315 165 350 165 C385 165 405 140 405 110 C405 85 390 70 370 70 H365 C345 70 325 80 320 100 C325 90 335 85 350 85 C375 85 385 100 385 115 C385 135 370 148 350 148 C330 148 318 135 318 105 C318 75 330 62 350 62 V45 Z" /> 
   </g> 
   <rect x="30" y="180" width="375" height="4" fill="currentColor" opacity="0.1"/> 
</svg>