<svg width="32" height="32" viewBox="0 0 320 180" xmlns="http://www.w3.org/2000/svg">
  <g transform="skewX(-25) translate(20, 20)">
    <!-- AE6 Industrial Stencil -->
    <g transform="translate(0, 0)">
      <!-- A-TOTEM (Industrial Black) -->
      <g fill="#0F172A" transform="scale(1.1) translate(-5, -5)">
        <path d="M55 0 L110 115 H80 L55 45 L30 115 H0 Z"/>
        <path d="M38 72 H52 V88 H38 Z M58 72 H72 V88 H58 Z"/>
      </g>
      <!-- E + stencil 6 -->
      <g fill="#0F172A" transform="translate(105, 0)">
        <path d="M0 0 H22 V115 H0 Z
                 M28 0 H93 V24 H28 Z
                 M28 47 H76 V67 H28 Z
                 M28 91 H93 V115 H28 Z"/>
        <path d="M102 0 H178 V24 H124 V47 H178 V115 H102 V0 Z
                 M124 67 H156 V91 H124 Z"
              fill-rule="evenodd"/>
      </g>
    </g>
  </g>
</svg>
